<?xml version="1.0" standalone="no"?>
<!DOCTYPE svg PUBLIC "-//W3C//DTD SVG 20010904//EN"
 "http://www.w3.org/TR/2001/REC-SVG-20010904/DTD/svg10.dtd">
<svg version="1.0" xmlns="http://www.w3.org/2000/svg"
 width="300.000000pt" height="300.000000pt" viewBox="0 0 300.000000 300.000000"
 preserveAspectRatio="xMidYMid meet">
<metadata>
Created by potrace 1.10, written by Peter Selinger 2001-2011
</metadata>
<g transform="translate(0.000000,300.000000) scale(0.100000,-0.100000)"
fill="#000000" stroke="none">
<path d="M712 2644 c-135 -36 -247 -123 -309 -240 -63 -118 -63 -116 -63 -895
0 -673 1 -709 20 -784 24 -93 56 -151 123 -223 61 -64 94 -85 189 -120 l73
-27 725 -3 c800 -3 805 -3 929 59 73 36 160 127 201 210 61 120 61 118 58 922
l-3 732 -24 60 c-66 166 -178 266 -347 310 -84 22 -1491 21 -1572 -1z m1568
-40 c157 -39 263 -139 316 -298 l24 -71 -3 -745 c-2 -840 5 -767 -84 -902 -67
-102 -163 -163 -297 -189 -30 -6 -329 -10 -739 -9 -743 0 -749 0 -871 54 -110
49 -207 178 -235 314 -7 36 -11 281 -11 755 0 752 0 754 51 862 44 93 153 188
256 223 68 22 267 27 948 24 488 -2 590 -5 645 -18z"/>
<path d="M1186 2539 c-23 -18 -26 -28 -26 -80 0 -74 27 -109 84 -109 41 0 53
-14 86 -106 l21 -60 -109 -235 c-61 -128 -132 -281 -160 -339 -65 -138 -67
-146 -48 -175 15 -23 23 -25 95 -25 66 0 81 3 97 21 10 11 64 118 120 237 55
119 105 217 111 219 5 2 18 -18 28 -44 24 -66 82 -217 108 -282 45 -116 112
-160 244 -161 71 0 85 3 107 23 14 12 26 29 27 37 8 74 -19 120 -70 120 -45 0
-60 9 -80 49 -10 20 -85 207 -166 416 -82 209 -157 396 -168 415 -45 81 -82
100 -195 100 -65 0 -84 -4 -106 -21z m222 -35 c33 -23 48 -58 217 -490 85
-217 162 -408 170 -424 20 -38 43 -50 99 -50 l46 0 0 -50 0 -50 -90 0 c-106 0
-147 14 -182 61 -14 19 -66 142 -116 274 -79 210 -92 237 -100 215 -21 -54
-244 -526 -252 -534 -10 -10 -150 -18 -150 -9 0 2 77 167 170 365 94 198 170
365 170 371 0 13 -47 142 -62 170 -16 32 -27 37 -80 37 l-48 0 0 65 0 65 93 0
c68 0 99 -4 115 -16z"/>
<path d="M845 1430 c-45 -17 -47 -31 -46 -217 1 -178 1 -178 27 -200 21 -19
37 -23 91 -23 l67 0 -46 -45 c-80 -81 -96 -193 -40 -285 69 -112 208 -139 307
-60 33 26 65 31 65 10 0 -13 61 -47 96 -53 45 -9 102 8 144 42 l38 30 18 -20
c37 -41 74 -52 164 -50 70 2 89 6 107 23 22 20 23 20 50 3 64 -42 160 -36 208
15 28 29 47 88 48 150 2 114 -122 191 -225 141 -25 -11 -47 -21 -51 -21 -4 0
-7 15 -7 33 0 17 -7 44 -14 60 -14 26 -14 27 11 27 17 0 38 13 60 36 22 24 45
38 68 41 30 4 40 -1 74 -36 62 -63 105 -54 146 33 28 60 31 92 10 120 -11 14
-15 46 -15 107 0 110 -18 139 -85 139 -37 0 -47 -5 -74 -35 -17 -20 -39 -52
-50 -73 -10 -20 -28 -45 -39 -55 -20 -18 -21 -18 -33 4 -30 57 -60 69 -161 65
-57 -1 -92 -8 -107 -18 -21 -15 -25 -15 -55 3 -36 21 -108 27 -147 11 -14 -5
-39 -22 -56 -36 l-30 -26 -19 21 c-33 37 -73 52 -129 47 -85 -7 -137 -60 -152
-156 -3 -20 -10 -40 -15 -43 -10 -7 -87 -3 -95 5 -3 3 -7 60 -8 127 -2 103 -6
124 -21 139 -24 23 -54 31 -79 20z m65 -182 l0 -153 82 0 83 0 3 -32 3 -33
-125 0 -126 0 0 185 0 185 40 0 40 0 0 -152z m1250 31 c0 -112 1 -119 20 -119
16 0 20 -7 20 -31 0 -26 -3 -31 -20 -26 -17 4 -20 0 -20 -34 0 -38 -1 -39 -35
-39 -34 0 -35 1 -35 38 l0 37 -80 -3 -80 -4 0 28 c0 18 28 73 77 150 77 122
77 123 115 122 l38 0 0 -119z m-867 9 c28 -14 57 -69 57 -108 l0 -35 -90 3
c-80 3 -90 2 -90 -14 0 -46 65 -71 101 -38 10 9 30 14 51 12 l33 -3 -36 -37
c-113 -116 -274 17 -203 168 30 63 110 86 177 52z m260 11 c53 -14 67 -51 67
-174 l0 -95 -35 0 c-26 0 -35 4 -35 17 0 15 -1 15 -19 -1 -10 -9 -35 -19 -54
-23 -31 -5 -40 -1 -67 25 -39 39 -39 74 -1 113 21 20 39 29 63 29 57 0 79 10
76 34 -4 27 -58 35 -78 12 -13 -17 -80 -22 -80 -7 0 6 10 22 23 36 18 22 45
34 97 44 3 0 22 -4 43 -10z m177 -15 c0 -14 2 -14 22 0 47 33 138 9 138 -36 0
-7 1 -59 3 -115 l3 -103 -33 0 -33 0 0 88 c0 120 -30 162 -80 112 -17 -17 -20
-33 -20 -110 l0 -90 -35 0 -35 0 0 135 0 135 35 0 c25 0 35 -4 35 -16z m66
-251 c20 -27 17 -33 -14 -33 -31 0 -68 -32 -74 -64 -2 -13 -18 -23 -51 -31
-26 -7 -61 -25 -77 -40 -29 -28 -29 -28 -55 -9 -83 59 -138 68 -205 34 -49
-25 -57 -25 -65 1 -4 12 -23 39 -42 60 l-35 39 49 0 c37 0 60 7 88 26 l37 25
38 -26 c35 -24 41 -25 131 -20 119 8 137 8 175 0 27 -6 34 -2 55 24 29 36 28
36 45 14z m-619 -101 c16 -12 37 -36 46 -54 l16 -33 -36 -3 c-28 -3 -41 2 -52
17 -40 51 -128 46 -156 -9 -30 -58 -11 -155 34 -180 36 -19 86 -12 111 15 17
18 34 25 62 25 l39 0 -15 -29 c-47 -90 -160 -117 -247 -58 -44 29 -68 74 -76
136 -8 68 29 146 84 179 50 30 144 27 190 -6z m643 -155 l0 -184 -35 1 c-27 1
-35 5 -35 19 0 17 -2 17 -26 -2 -32 -25 -55 -26 -95 -6 -84 44 -92 182 -14
243 33 26 91 29 117 5 17 -15 18 -14 18 45 l0 62 35 0 35 0 0 -183z m-333 59
c33 -30 37 -39 40 -92 3 -47 0 -66 -17 -92 -35 -57 -111 -77 -176 -46 -43 21
-68 65 -68 124 0 89 49 139 137 140 40 0 53 -5 84 -34z m567 13 c34 -27 56
-70 56 -110 l0 -31 -90 4 c-77 4 -90 2 -90 -11 1 -42 53 -67 95 -45 15 8 40
14 57 14 l29 0 -18 -25 c-37 -51 -108 -68 -167 -40 -43 20 -66 63 -66 120 0
86 51 145 125 145 28 0 51 -7 69 -21z m-919 -24 c22 -13 53 -25 68 -25 24 0
28 -4 25 -22 -2 -17 -12 -24 -39 -29 -20 -3 -49 -15 -64 -27 -34 -27 -59 -28
-85 -2 -25 25 -27 86 -3 112 22 24 50 23 98 -7z"/>
<path d="M2045 1238 c-22 -35 -41 -66 -43 -70 -2 -5 17 -8 42 -8 l46 0 0 70
c0 39 -1 70 -3 70 -1 0 -20 -28 -42 -62z"/>
<path d="M1187 1232 c-30 -33 -21 -42 43 -42 52 0 59 2 53 18 -16 46 -66 58
-96 24z"/>
<path d="M1498 1142 c-49 -14 -62 -34 -36 -60 31 -31 93 4 86 50 -3 24 -4 24
-50 10z"/>
<path d="M1656 799 c-52 -41 -27 -149 34 -149 38 0 60 32 60 86 0 34 -5 47
-26 63 -15 12 -30 21 -34 21 -4 0 -19 -9 -34 -21z m49 -69 c0 -36 -29 -33 -33
3 -3 23 0 28 15 25 12 -2 18 -12 18 -28z"/>
<path d="M1353 794 c-22 -22 -25 -32 -20 -72 6 -51 25 -72 67 -72 72 0 92 128
24 159 -35 16 -42 14 -71 -15z m65 -61 c4 -35 -22 -53 -36 -25 -10 20 -10 33
2 50 13 21 31 8 34 -25z"/>
<path d="M1952 804 c-41 -28 -28 -44 38 -44 52 0 59 2 53 18 -14 41 -54 53
-91 26z"/>
</g>
</svg>
