<?xml version="1.0" standalone="no"?>
<!DOCTYPE svg PUBLIC "-//W3C//DTD SVG 20010904//EN"
 "http://www.w3.org/TR/2001/REC-SVG-20010904/DTD/svg10.dtd">
<svg version="1.0" xmlns="http://www.w3.org/2000/svg"
 width="300.000000pt" height="300.000000pt" viewBox="0 0 300.000000 300.000000"
 preserveAspectRatio="xMidYMid meet">
<metadata>
Created by potrace 1.10, written by Peter Selinger 2001-2011
</metadata>
<g transform="translate(0.000000,300.000000) scale(0.100000,-0.100000)"
fill="#000000" stroke="none">
<path d="M2145 2673 c-18 -14 -18 -15 -2 -9 10 3 33 6 50 6 24 0 28 3 17 10
-21 14 -42 12 -65 -7z"/>
<path d="M1162 2247 c-17 -18 -22 -37 -23 -86 -2 -56 1 -66 22 -82 13 -10 33
-19 44 -19 52 -1 62 -11 94 -91 17 -44 31 -90 31 -101 0 -11 -76 -190 -170
-398 -93 -208 -170 -389 -170 -403 0 -40 34 -57 113 -57 63 0 71 2 95 29 15
16 47 75 71 132 24 57 55 127 67 154 13 28 40 90 62 138 21 49 42 90 47 90 9
2 37 -66 145 -351 58 -151 114 -192 263 -192 80 0 98 3 121 21 22 18 26 28 26
74 0 46 -4 56 -26 74 -16 13 -41 21 -64 21 -24 0 -43 7 -54 19 -10 11 -83 187
-163 393 -79 205 -162 419 -184 475 -65 165 -87 183 -232 183 -85 0 -96 -2
-115 -23z m229 -27 c28 -16 45 -54 209 -477 212 -546 209 -539 232 -560 12
-11 42 -20 77 -23 l56 -5 0 -50 0 -50 -102 -3 c-116 -3 -146 7 -187 60 -18 25
-157 379 -219 558 -3 9 -16 -11 -33 -50 -16 -35 -79 -177 -140 -315 l-110
-250 -78 -3 c-72 -3 -78 -1 -73 15 3 10 84 193 181 407 l177 390 -37 99 c-21
54 -43 106 -50 115 -7 10 -32 18 -65 22 l-54 5 -3 49 c-5 76 -5 76 103 76 53
0 105 -5 116 -10z"/>
</g>
</svg>
